<svg xmlns="http://www.w3.org/2000/svg" version="1.1" xmlns:xlink="http://www.w3.org/1999/xlink" xmlns:svgjs="http://svgjs.com/svgjs" width="360" height="800" preserveAspectRatio="none" viewBox="0 0 360 800"><g mask="url(&quot;#SvgjsMask1009&quot;)" fill="none"><rect width="360" height="800" x="0" y="0" fill="url(#SvgjsLinearGradient1010)"></rect><use xlink:href="#SvgjsSymbol1017" x="0" y="0"></use><use xlink:href="#SvgjsSymbol1017" x="0" y="720"></use></g><defs><mask id="SvgjsMask1009"><rect width="360" height="800" fill="#ffffff"></rect></mask><linearGradient x1="-30.56%" y1="13.75%" x2="130.56%" y2="86.25%" gradientUnits="userSpaceOnUse" id="SvgjsLinearGradient1010"><stop stop-color="rgba(255, 221, 204, 1)" offset="0.05"></stop><stop stop-color="rgba(255, 187, 204, 1)" offset="1"></stop></linearGradient><path d="M-1 0 a1 1 0 1 0 2 0 a1 1 0 1 0 -2 0z" id="SvgjsPath1016"></path><path d="M-3 0 a3 3 0 1 0 6 0 a3 3 0 1 0 -6 0z" id="SvgjsPath1011"></path><path d="M-5 0 a5 5 0 1 0 10 0 a5 5 0 1 0 -10 0z" id="SvgjsPath1012"></path><path d="M2 -2 L-2 2z" id="SvgjsPath1014"></path><path d="M6 -6 L-6 6z" id="SvgjsPath1013"></path><path d="M30 -30 L-30 30z" id="SvgjsPath1015"></path></defs><symbol id="SvgjsSymbol1017"><use xlink:href="#SvgjsPath1011" x="30" y="30" stroke="rgba(255, 238, 204, 1)"></use><use xlink:href="#SvgjsPath1012" x="30" y="90" stroke="rgba(255, 238, 204, 1)"></use><use xlink:href="#SvgjsPath1012" x="30" y="150" stroke="rgba(255, 238, 204, 1)"></use><use xlink:href="#SvgjsPath1012" x="30" y="210" stroke="rgba(255, 238, 204, 1)"></use><use xlink:href="#SvgjsPath1013" x="30" y="270" stroke="rgba(255, 238, 204, 1)"></use><use xlink:href="#SvgjsPath1014" x="30" y="330" stroke="rgba(255, 238, 204, 1)"></use><use xlink:href="#SvgjsPath1013" x="30" y="390" stroke="rgba(255, 238, 204, 1)"></use><use xlink:href="#SvgjsPath1012" x="30" y="450" stroke="rgba(255, 238, 204, 1)"></use><use xlink:href="#SvgjsPath1015" x="30" y="510" stroke="rgba(255, 238, 204, 1)" stroke-width="3"></use><use xlink:href="#SvgjsPath1012" x="30" y="570" stroke="rgba(255, 238, 204, 1)"></use><use xlink:href="#SvgjsPath1012" x="30" y="630" stroke="rgba(255, 238, 204, 1)"></use><use xlink:href="#SvgjsPath1013" x="30" y="690" stroke="rgba(255, 238, 204, 1)"></use><use xlink:href="#SvgjsPath1013" x="90" y="30" stroke="rgba(255, 238, 204, 1)"></use><use xlink:href="#SvgjsPath1016" x="90" y="90" stroke="rgba(255, 238, 204, 1)"></use><use xlink:href="#SvgjsPath1014" x="90" y="150" stroke="rgba(255, 238, 204, 1)"></use><use xlink:href="#SvgjsPath1011" x="90" y="210" stroke="rgba(255, 238, 204, 1)"></use><use xlink:href="#SvgjsPath1014" x="90" y="270" stroke="rgba(255, 238, 204, 1)"></use><use xlink:href="#SvgjsPath1011" x="90" y="330" stroke="rgba(255, 238, 204, 1)"></use><use xlink:href="#SvgjsPath1013" x="90" y="390" stroke="rgba(255, 238, 204, 1)"></use><use xlink:href="#SvgjsPath1016" x="90" y="450" stroke="rgba(255, 238, 204, 1)"></use><use xlink:href="#SvgjsPath1014" x="90" y="510" stroke="rgba(255, 238, 204, 1)"></use><use xlink:href="#SvgjsPath1011" x="90" y="570" stroke="rgba(255, 238, 204, 1)"></use><use xlink:href="#SvgjsPath1013" x="90" y="630" stroke="rgba(255, 238, 204, 1)"></use><use xlink:href="#SvgjsPath1014" x="90" y="690" stroke="rgba(255, 238, 204, 1)"></use><use xlink:href="#SvgjsPath1013" x="150" y="30" stroke="rgba(255, 238, 204, 1)"></use><use xlink:href="#SvgjsPath1012" x="150" y="90" stroke="rgba(255, 238, 204, 1)"></use><use xlink:href="#SvgjsPath1013" x="150" y="150" stroke="rgba(255, 238, 204, 1)"></use><use xlink:href="#SvgjsPath1012" x="150" y="210" stroke="rgba(255, 238, 204, 1)"></use><use xlink:href="#SvgjsPath1013" x="150" y="270" stroke="rgba(255, 238, 204, 1)"></use><use xlink:href="#SvgjsPath1014" x="150" y="330" stroke="rgba(255, 238, 204, 1)"></use><use xlink:href="#SvgjsPath1011" x="150" y="390" stroke="rgba(255, 238, 204, 1)"></use><use xlink:href="#SvgjsPath1014" x="150" y="450" stroke="rgba(255, 238, 204, 1)"></use><use xlink:href="#SvgjsPath1012" x="150" y="510" stroke="rgba(255, 238, 204, 1)"></use><use xlink:href="#SvgjsPath1013" x="150" y="570" stroke="rgba(255, 238, 204, 1)"></use><use xlink:href="#SvgjsPath1012" x="150" y="630" stroke="rgba(255, 238, 204, 1)"></use><use xlink:href="#SvgjsPath1013" x="150" y="690" stroke="rgba(255, 238, 204, 1)"></use><use xlink:href="#SvgjsPath1012" x="210" y="30" stroke="rgba(255, 238, 204, 1)"></use><use xlink:href="#SvgjsPath1013" x="210" y="90" stroke="rgba(255, 238, 204, 1)"></use><use xlink:href="#SvgjsPath1012" x="210" y="150" stroke="rgba(255, 238, 204, 1)"></use><use xlink:href="#SvgjsPath1013" x="210" y="210" stroke="rgba(255, 238, 204, 1)"></use><use xlink:href="#SvgjsPath1012" x="210" y="270" stroke="rgba(255, 238, 204, 1)"></use><use xlink:href="#SvgjsPath1012" x="210" y="330" stroke="rgba(255, 238, 204, 1)"></use><use xlink:href="#SvgjsPath1012" x="210" y="390" stroke="rgba(255, 238, 204, 1)"></use><use xlink:href="#SvgjsPath1013" x="210" y="450" stroke="rgba(255, 238, 204, 1)"></use><use xlink:href="#SvgjsPath1013" x="210" y="510" stroke="rgba(255, 238, 204, 1)"></use><use xlink:href="#SvgjsPath1012" x="210" y="570" stroke="rgba(255, 238, 204, 1)"></use><use xlink:href="#SvgjsPath1012" x="210" y="630" stroke="rgba(255, 238, 204, 1)"></use><use xlink:href="#SvgjsPath1016" x="210" y="690" stroke="rgba(255, 238, 204, 1)"></use><use xlink:href="#SvgjsPath1013" x="270" y="30" stroke="rgba(255, 238, 204, 1)"></use><use xlink:href="#SvgjsPath1012" x="270" y="90" stroke="rgba(255, 238, 204, 1)"></use><use xlink:href="#SvgjsPath1012" x="270" y="150" stroke="rgba(255, 238, 204, 1)"></use><use xlink:href="#SvgjsPath1014" x="270" y="210" stroke="rgba(255, 238, 204, 1)"></use><use xlink:href="#SvgjsPath1012" x="270" y="270" stroke="rgba(255, 238, 204, 1)"></use><use xlink:href="#SvgjsPath1012" x="270" y="330" stroke="rgba(255, 238, 204, 1)"></use><use xlink:href="#SvgjsPath1011" x="270" y="390" stroke="rgba(255, 238, 204, 1)"></use><use xlink:href="#SvgjsPath1011" x="270" y="450" stroke="rgba(255, 238, 204, 1)"></use><use xlink:href="#SvgjsPath1013" x="270" y="510" stroke="rgba(255, 238, 204, 1)"></use><use xlink:href="#SvgjsPath1012" x="270" y="570" stroke="rgba(255, 238, 204, 1)"></use><use xlink:href="#SvgjsPath1013" x="270" y="630" stroke="rgba(255, 238, 204, 1)"></use><use xlink:href="#SvgjsPath1013" x="270" y="690" stroke="rgba(255, 238, 204, 1)"></use><use xlink:href="#SvgjsPath1013" x="330" y="30" stroke="rgba(255, 238, 204, 1)"></use><use xlink:href="#SvgjsPath1013" x="330" y="90" stroke="rgba(255, 238, 204, 1)"></use><use xlink:href="#SvgjsPath1012" x="330" y="150" stroke="rgba(255, 238, 204, 1)"></use><use xlink:href="#SvgjsPath1011" x="330" y="210" stroke="rgba(255, 238, 204, 1)"></use><use xlink:href="#SvgjsPath1013" x="330" y="270" stroke="rgba(255, 238, 204, 1)"></use><use xlink:href="#SvgjsPath1012" x="330" y="330" stroke="rgba(255, 238, 204, 1)"></use><use xlink:href="#SvgjsPath1012" x="330" y="390" stroke="rgba(255, 238, 204, 1)"></use><use xlink:href="#SvgjsPath1012" x="330" y="450" stroke="rgba(255, 238, 204, 1)"></use><use xlink:href="#SvgjsPath1014" x="330" y="510" stroke="rgba(255, 238, 204, 1)"></use><use xlink:href="#SvgjsPath1014" x="330" y="570" stroke="rgba(255, 238, 204, 1)"></use><use xlink:href="#SvgjsPath1016" x="330" y="630" stroke="rgba(255, 238, 204, 1)"></use><use xlink:href="#SvgjsPath1011" x="330" y="690" stroke="rgba(255, 238, 204, 1)"></use></symbol></svg>